<svg xmlns="http://www.w3.org/2000/svg" viewBox="31.5 5.5 70.6 97.9"><path d="M64.7 102.2c.1.2.2.3.3.4.4.5 1 .8 1.6.8.7 0 1.3-.1 1.8-.8.1-.1.3-.3.3-.5C76 91.2 83.2 80.3 90.2 69.4c4.5-7 9.7-13.8 11.1-22.1 1.7-9.9-.7-20.1-6.7-28.1C82.7 3.3 59.2.9 44 13.7c-7.3 6.1-11.8 15-12.4 24.5-.8 10 3 17.6 8.2 25.8 8 12.8 16.4 25.5 24.9 38.2z"/><path d="M97.1 47.2c-1.5 7.3-6.6 13.8-10.7 20-6.4 10.1-12.9 20-19.6 29.9-5.7-8.3-11.2-16.6-16.6-25-3.7-5.7-7.5-11.4-10.8-17.3-5.2-9.2-4.6-21.2.9-30.2 10.4-17.5 35.3-20 49.1-5.2 6.9 7.4 9.7 18 7.7 27.8z"/></svg>