<svg xmlns="http://www.w3.org/2000/svg" class="storelocator-detailStoreIconRoute" viewBox="1772 1772 19.185 20"><path d="M1791.074 1775.318a.356.356 0 0 1 0 .514l-1.574 1.573c-.209.21-.464.313-.761.313h-15.009a.679.679 0 0 1-.502-.213.688.688 0 0 1-.211-.502v-2.859c0-.192.07-.36.211-.502a.688.688 0 0 1 .502-.211h6.434v-.716c0-.192.07-.36.211-.502a.682.682 0 0 1 .502-.213h1.431a.68.68 0 0 1 .502.213c.142.142.211.31.211.502v.716h5.719c.297 0 .552.102.761.312l1.573 1.575zm-10.91 10.262h2.856v5.716a.69.69 0 0 1-.211.505.686.686 0 0 1-.502.211h-1.431a.688.688 0 0 1-.502-.211.693.693 0 0 1-.211-.505v-5.716zm9.29-5.003c.193 0 .361.07.502.211.142.142.212.31.212.502v2.859c0 .192-.07.361-.212.504a.684.684 0 0 1-.502.212h-15.009c-.297 0-.551-.105-.76-.314l-1.574-1.572a.357.357 0 0 1 0-.515l1.574-1.576c.209-.209.463-.311.76-.311h5.719v-2.146h2.856v2.146h6.434z"/></svg>